REM DIRINDEX 1\2\4,1\2\5,1\2\6,1\3\7,1\3\8,1\3\9,1\3\10
REM DIRNAME folder01,folder02,folder03,folder04,folder05,folder06,folder07,folder08,folder09,folder10
TITLE ""
FILE "a_113.mp3" MP3
  TRACK 01 AUDIO
    TITLE "0:"
    INDEX 01 00:00:00
  TRACK 02 AUDIO
    TITLE "4:cjc057_01680"
    INDEX 01 00:00:13
  TRACK 03 AUDIO
    TITLE "0:"
    INDEX 01 00:01:09
  TRACK 04 AUDIO
    TITLE "5:cjc057_01681"
    INDEX 01 00:01:44
  TRACK 05 AUDIO
    TITLE "0:"
    INDEX 01 00:04:19
  TRACK 06 AUDIO
    TITLE "4:cjc057_01682"
    INDEX 01 00:05:26
  TRACK 07 AUDIO
    TITLE "0:"
    INDEX 01 00:06:28
  TRACK 08 AUDIO
    TITLE "5:cjc057_01683"
    INDEX 01 00:06:63
  TRACK 09 AUDIO
    TITLE "0:"
    INDEX 01 00:08:62
  TRACK 10 AUDIO
    TITLE "4:cjc057_01684"
    INDEX 01 00:09:73
  TRACK 11 AUDIO
    TITLE "0:"
    INDEX 01 00:11:07
  TRACK 12 AUDIO
    TITLE "5:cjc057_01685"
    INDEX 01 00:11:37
  TRACK 13 AUDIO
    TITLE "0:"
    INDEX 01 00:13:39
  TRACK 14 AUDIO
    TITLE "4:cjc057_01686"
    INDEX 01 00:14:49
  TRACK 15 AUDIO
    TITLE "0:"
    INDEX 01 00:15:60
  TRACK 16 AUDIO
    TITLE "5:cjc057_01687"
    INDEX 01 00:16:20
  TRACK 17 AUDIO
    TITLE "0:"
    INDEX 01 00:18:46
  TRACK 18 AUDIO
    TITLE "4:cjc057_01688"
    INDEX 01 00:19:52
  TRACK 19 AUDIO
    TITLE "0:"
    INDEX 01 00:20:61
  TRACK 20 AUDIO
    TITLE "5:cjc057_01689"
    INDEX 01 00:21:19
  TRACK 21 AUDIO
    TITLE "0:"
    INDEX 01 00:24:39
  TRACK 22 AUDIO
    TITLE "4:cjc057_01690"
    INDEX 01 00:25:46
  TRACK 23 AUDIO
    TITLE "0:"
    INDEX 01 00:26:48
  TRACK 24 AUDIO
    TITLE "5:cjc057_01691"
    INDEX 01 00:27:08
  TRACK 25 AUDIO
    TITLE "0:"
    INDEX 01 00:30:36
  TRACK 26 AUDIO
    TITLE "4:cjc057_01692"
    INDEX 01 00:31:43
  TRACK 27 AUDIO
    TITLE "0:"
    INDEX 01 00:32:48
  TRACK 28 AUDIO
    TITLE "5:cjc057_01693"
    INDEX 01 00:33:07
  TRACK 29 AUDIO
    TITLE "0:"
    INDEX 01 00:33:71
  TRACK 30 AUDIO
    TITLE "4:cjc057_01694"
    INDEX 01 00:35:04
  TRACK 31 AUDIO
    TITLE "0:"
    INDEX 01 00:36:15
  TRACK 32 AUDIO
    TITLE "5:cjc057_01695"
    INDEX 01 00:36:48
  TRACK 33 AUDIO
    TITLE "0:"
    INDEX 01 00:38:55
  TRACK 34 AUDIO
    TITLE "4:cjc057_01696"
    INDEX 01 00:39:60
  TRACK 35 AUDIO
    TITLE "0:"
    INDEX 01 00:41:22
  TRACK 36 AUDIO
    TITLE "5:cjc057_01697"
    INDEX 01 00:41:55
  TRACK 37 AUDIO
    TITLE "0:"
    INDEX 01 00:43:05
  TRACK 38 AUDIO
    TITLE "4:cjc057_01698"
    INDEX 01 00:44:12
  TRACK 39 AUDIO
    TITLE "0:"
    INDEX 01 00:45:24
  TRACK 40 AUDIO
    TITLE "5:cjc057_01699"
    INDEX 01 00:45:59
  TRACK 41 AUDIO
    TITLE "0:"
    INDEX 01 00:47:44
  TRACK 42 AUDIO
    TITLE "4:cjc057_01700"
    INDEX 01 00:48:51
  TRACK 43 AUDIO
    TITLE "0:"
    INDEX 01 00:49:63
  TRACK 44 AUDIO
    TITLE "5:cjc057_01701"
    INDEX 01 00:50:23
  TRACK 45 AUDIO
    TITLE "0:"
    INDEX 01 00:52:47
  TRACK 46 AUDIO
    TITLE "4:cjc057_01702"
    INDEX 01 00:53:55
  TRACK 47 AUDIO
    TITLE "0:"
    INDEX 01 00:54:68
  TRACK 48 AUDIO
    TITLE "5:cjc057_01703"
    INDEX 01 00:55:28
  TRACK 49 AUDIO
    TITLE "0:"
    INDEX 01 00:58:11
  TRACK 50 AUDIO
    TITLE "4:cjc057_01704"
    INDEX 01 00:59:20
  TRACK 51 AUDIO
    TITLE "0:"
    INDEX 01 01:00:35
  TRACK 52 AUDIO
    TITLE "5:cjc057_01705"
    INDEX 01 01:00:68
  TRACK 53 AUDIO
    TITLE "0:"
    INDEX 01 01:01:70
  TRACK 54 AUDIO
    TITLE "4:cjc057_01706"
    INDEX 01 01:03:04
  TRACK 55 AUDIO
    TITLE "0:"
    INDEX 01 01:04:19
  TRACK 56 AUDIO
    TITLE "5:cjc057_01707"
    INDEX 01 01:04:52
  TRACK 57 AUDIO
    TITLE "0:"
    INDEX 01 01:06:71
  TRACK 58 AUDIO
    TITLE "4:cjc057_01708"
    INDEX 01 01:08:05
  TRACK 59 AUDIO
    TITLE "0:"
    INDEX 01 01:09:16
  TRACK 60 AUDIO
    TITLE "5:cjc057_01709"
    INDEX 01 01:09:50
  TRACK 61 AUDIO
    TITLE "0:"
    INDEX 01 01:12:26
  TRACK 62 AUDIO
    TITLE "4:cjc057_01710"
    INDEX 01 01:13:34
  TRACK 63 AUDIO
    TITLE "0:"
    INDEX 01 01:14:45
  TRACK 64 AUDIO
    TITLE "5:cjc057_01711"
    INDEX 01 01:15:03
  TRACK 65 AUDIO
    TITLE "0:"
    INDEX 01 01:18:29
  TRACK 66 AUDIO
    TITLE "4:cjc057_01712"
    INDEX 01 01:19:38
  TRACK 67 AUDIO
    TITLE "0:"
    INDEX 01 01:20:48
  TRACK 68 AUDIO
    TITLE "5:cjc057_01713"
    INDEX 01 01:21:06
  TRACK 69 AUDIO
    TITLE "0:"
    INDEX 01 01:22:01
  TRACK 70 AUDIO
    TITLE "4:cjc057_01714"
    INDEX 01 01:23:09
  TRACK 71 AUDIO
    TITLE "0:"
    INDEX 01 01:24:28
  TRACK 72 AUDIO
    TITLE "5:cjc057_01715"
    INDEX 01 01:24:63
  TRACK 73 AUDIO
    TITLE "0:"
    INDEX 01 01:26:03
  TRACK 74 AUDIO
    TITLE "4:cjc057_01716"
    INDEX 01 01:27:12
  TRACK 75 AUDIO
    TITLE "0:"
    INDEX 01 01:28:35
  TRACK 76 AUDIO
    TITLE "5:cjc057_01717"
    INDEX 01 01:28:69
  TRACK 77 AUDIO
    TITLE "0:"
    INDEX 01 01:32:12
  TRACK 78 AUDIO
    TITLE "4:cjc057_01718"
    INDEX 01 01:33:19
  TRACK 79 AUDIO
    TITLE "0:"
    INDEX 01 01:34:26
  TRACK 80 AUDIO
    TITLE "5:cjc057_01719"
    INDEX 01 01:34:59
  TRACK 81 AUDIO
    TITLE "0:"
    INDEX 01 01:37:05
  TRACK 82 AUDIO
    TITLE "4:cjc057_01720"
    INDEX 01 01:38:16
  TRACK 83 AUDIO
    TITLE "0:"
    INDEX 01 01:39:21
  TRACK 84 AUDIO
    TITLE "5:cjc057_01721"
    INDEX 01 01:39:55
  TRACK 85 AUDIO
    TITLE "0:"
    INDEX 01 01:41:61
  TRACK 86 AUDIO
    TITLE "4:cjc057_01722"
    INDEX 01 01:42:67
  TRACK 87 AUDIO
    TITLE "0:"
    INDEX 01 01:43:74
  TRACK 88 AUDIO
    TITLE "5:cjc057_01723"
    INDEX 01 01:44:32
  TRACK 89 AUDIO
    TITLE "0:"
    INDEX 01 01:47:25
  TRACK 90 AUDIO
    TITLE "4:cjc057_01724"
    INDEX 01 01:48:34
  TRACK 91 AUDIO
    TITLE "0:"
    INDEX 01 01:49:47
  TRACK 92 AUDIO
    TITLE "5:cjc057_01725"
    INDEX 01 01:50:06
  TRACK 93 AUDIO
    TITLE "0:"
    INDEX 01 01:51:13
  TRACK 94 AUDIO
    TITLE "4:cjc057_01726"
    INDEX 01 01:52:20
  TRACK 95 AUDIO
    TITLE "0:"
    INDEX 01 01:53:33
  TRACK 96 AUDIO
    TITLE "5:cjc057_01727"
    INDEX 01 01:53:67
  TRACK 97 AUDIO
    TITLE "0:"
    INDEX 01 01:58:21
  TRACK 98 AUDIO
    TITLE "4:cjc057_01728"
    INDEX 01 01:59:30
  TRACK 99 AUDIO
    TITLE "0:"
    INDEX 01 02:00:51
  TRACK 100 AUDIO
    TITLE "5:cjc057_01729"
    INDEX 01 02:01:09
  TRACK 101 AUDIO
    TITLE "0:"
    INDEX 01 02:03:28
  TRACK 102 AUDIO
    TITLE "4:cjc057_01730"
    INDEX 01 02:04:37
  TRACK 103 AUDIO
    TITLE "0:"
    INDEX 01 02:05:54
  TRACK 104 AUDIO
    TITLE "5:cjc057_01731"
    INDEX 01 02:06:12
  TRACK 105 AUDIO
    TITLE "0:"
    INDEX 01 02:08:35
  TRACK 106 AUDIO
    TITLE "4:cjc057_01732"
    INDEX 01 02:09:46
  TRACK 107 AUDIO
    TITLE "0:"
    INDEX 01 02:10:57
  TRACK 108 AUDIO
    TITLE "5:cjc057_01733"
    INDEX 01 02:11:15
  TRACK 109 AUDIO
    TITLE "0:"
    INDEX 01 02:13:38
  TRACK 110 AUDIO
    TITLE "4:cjc057_01734"
    INDEX 01 02:14:47
  TRACK 111 AUDIO
    TITLE "0:"
    INDEX 01 02:15:52
  TRACK 112 AUDIO
    TITLE "5:cjc057_01735"
    INDEX 01 02:16:11
  TRACK 113 AUDIO
    TITLE "0:"
    INDEX 01 02:20:61
